<?xml version="1.0" standalone="no"?>
<!DOCTYPE svg PUBLIC "-//W3C//DTD SVG 20010904//EN"
 "http://www.w3.org/TR/2001/REC-SVG-20010904/DTD/svg10.dtd">
<svg version="1.0" xmlns="http://www.w3.org/2000/svg"
 width="192.000000pt" height="192.000000pt" viewBox="0 0 192.000000 192.000000"
 preserveAspectRatio="xMidYMid meet">
<metadata>
Created by potrace 1.11, written by Peter Selinger 2001-2013
</metadata>
<g transform="translate(0.000000,192.000000) scale(0.100000,-0.100000)"
fill="#000000" stroke="none">
<path d="M0 960 l0 -960 879 0 879 0 -9 38 c-12 54 -9 63 6 17 12 -36 14 -38
21 -17 7 24 11 25 92 22 l52 -1 0 930 0 931 -960 0 -960 0 0 -960z m1101 597
c-10 -9 -11 -8 -5 6 3 10 9 15 12 12 3 -3 0 -11 -7 -18z m39 -328 c0 -7 -18
-7 -48 0 -2 1 -1 5 2 10 7 11 46 2 46 -10z m-197 -209 c53 -37 59 -50 23 -50
-13 0 -46 -9 -72 -20 -51 -22 -65 -19 -46 10 16 27 15 35 -3 20 -13 -11 -15
-8 -13 21 2 24 -1 33 -10 31 -10 -2 -10 2 -3 17 6 10 8 21 6 25 -3 3 -2 3 3 0
4 -3 7 -9 8 -12 0 -4 6 -18 12 -32 12 -25 12 -24 8 6 -2 17 -12 44 -22 60 -17
27 -15 27 22 -7 21 -20 60 -51 87 -69z m215 -29 l-3 -59 -27 14 c-15 8 -39 15
-53 16 -14 1 -25 3 -25 5 0 2 103 81 108 82 1 1 1 -25 0 -58z m-243 -81 c10
-11 19 -34 20 -51 2 -17 8 -35 14 -39 8 -4 12 -56 12 -156 1 -82 5 -154 10
-160 5 -6 11 -64 14 -130 3 -65 8 -131 10 -146 3 -16 1 -28 -3 -28 -5 0 -21
60 -36 133 -16 72 -37 162 -48 199 -11 37 -17 72 -13 77 3 6 1 20 -5 31 -12
22 -15 93 -6 148 2 19 0 43 -5 55 l-10 22 5 -22 c2 -13 0 -23 -5 -23 -5 0 -9
3 -10 8 0 4 -2 22 -5 41 -3 24 1 37 13 47 24 18 27 17 48 -6z m220 -10 c-2
-11 -1 -20 3 -20 4 0 8 -11 9 -25 1 -14 3 -37 4 -52 1 -15 -3 -29 -9 -31 -8
-2 -8 -10 -1 -25 6 -14 6 -42 1 -77 -6 -30 -10 -45 -11 -32 0 12 -13 50 -27
85 -29 67 -28 129 1 174 19 28 35 30 30 3z m-25 -560 c0 -5 -12 -10 -26 -10
-14 0 -23 4 -19 10 3 6 15 10 26 10 10 0 19 -4 19 -10z m627 -222 c-2 -13 -4
-5 -4 17 -1 22 1 32 4 23 2 -10 2 -28 0 -40z"/>
</g>
</svg>
